<mxfile host="Electron" modified="2025-09-25T13:06:29.096Z" agent="Mozilla/5.0 (Windows NT 10.0; Win64; x64) AppleWebKit/537.36 (KHTML, like Gecko) draw.io/24.4.8 Chrome/124.0.6367.207 Electron/30.0.6 Safari/537.36" version="24.4.8" etag="oFOBxBrpO5lo9nUq6JtK" type="device" pages="2">
  <diagram name="Data Models" id="f77tCbPfjK0kyp6B9B-h">
    <mxGraphModel dx="1589" dy="510" grid="1" gridSize="10" guides="1" tooltips="1" connect="1" arrows="1" fold="1" page="1" pageScale="1" pageWidth="827" pageHeight="1169" math="0" shadow="0">
      <root>
        <mxCell id="0" />
        <mxCell id="1" parent="0" />
        <mxCell id="c2LqVDU84PMeEA8C6nv5-3" value="&lt;b&gt;&lt;font style=&quot;font-size: 26px;&quot;&gt;Data Models&lt;/font&gt;&lt;/b&gt;" style="text;html=1;align=center;verticalAlign=middle;whiteSpace=wrap;rounded=0;" parent="1" vertex="1">
          <mxGeometry x="293" y="40" width="241" height="50" as="geometry" />
        </mxCell>
        <mxCell id="c2LqVDU84PMeEA8C6nv5-23" value="&lt;b&gt;Users&lt;/b&gt;" style="swimlane;fontStyle=0;childLayout=stackLayout;horizontal=1;startSize=26;fillColor=#008a00;horizontalStack=0;resizeParent=1;resizeParentMax=0;resizeLast=0;collapsible=1;marginBottom=0;whiteSpace=wrap;html=1;fontColor=#ffffff;strokeColor=#005700;" parent="1" vertex="1">
          <mxGeometry x="90" y="360" width="190" height="416" as="geometry" />
        </mxCell>
        <mxCell id="c2LqVDU84PMeEA8C6nv5-26" value="Name" style="text;strokeColor=none;fillColor=none;align=left;verticalAlign=top;spacingLeft=4;spacingRight=4;overflow=hidden;rotatable=0;points=[[0,0.5],[1,0.5]];portConstraint=eastwest;whiteSpace=wrap;html=1;" parent="c2LqVDU84PMeEA8C6nv5-23" vertex="1">
          <mxGeometry y="26" width="190" height="26" as="geometry" />
        </mxCell>
        <mxCell id="c2LqVDU84PMeEA8C6nv5-27" value="Nickname | String" style="text;strokeColor=none;fillColor=none;align=left;verticalAlign=top;spacingLeft=4;spacingRight=4;overflow=hidden;rotatable=0;points=[[0,0.5],[1,0.5]];portConstraint=eastwest;whiteSpace=wrap;html=1;" parent="c2LqVDU84PMeEA8C6nv5-23" vertex="1">
          <mxGeometry y="52" width="190" height="26" as="geometry" />
        </mxCell>
        <mxCell id="c2LqVDU84PMeEA8C6nv5-47" value="Email | String" style="text;strokeColor=none;fillColor=none;align=left;verticalAlign=top;spacingLeft=4;spacingRight=4;overflow=hidden;rotatable=0;points=[[0,0.5],[1,0.5]];portConstraint=eastwest;whiteSpace=wrap;html=1;" parent="c2LqVDU84PMeEA8C6nv5-23" vertex="1">
          <mxGeometry y="78" width="190" height="26" as="geometry" />
        </mxCell>
        <mxCell id="c2LqVDU84PMeEA8C6nv5-48" value="Password | String" style="text;strokeColor=none;fillColor=none;align=left;verticalAlign=top;spacingLeft=4;spacingRight=4;overflow=hidden;rotatable=0;points=[[0,0.5],[1,0.5]];portConstraint=eastwest;whiteSpace=wrap;html=1;" parent="c2LqVDU84PMeEA8C6nv5-23" vertex="1">
          <mxGeometry y="104" width="190" height="26" as="geometry" />
        </mxCell>
        <mxCell id="c2LqVDU84PMeEA8C6nv5-50" value="isAdmin | Boolean" style="text;strokeColor=none;fillColor=none;align=left;verticalAlign=top;spacingLeft=4;spacingRight=4;overflow=hidden;rotatable=0;points=[[0,0.5],[1,0.5]];portConstraint=eastwest;whiteSpace=wrap;html=1;" parent="c2LqVDU84PMeEA8C6nv5-23" vertex="1">
          <mxGeometry y="130" width="190" height="26" as="geometry" />
        </mxCell>
        <mxCell id="c2LqVDU84PMeEA8C6nv5-52" value="MyPosts | Array[Post]" style="text;strokeColor=none;fillColor=none;align=left;verticalAlign=top;spacingLeft=4;spacingRight=4;overflow=hidden;rotatable=0;points=[[0,0.5],[1,0.5]];portConstraint=eastwest;whiteSpace=wrap;html=1;" parent="c2LqVDU84PMeEA8C6nv5-23" vertex="1">
          <mxGeometry y="156" width="190" height="26" as="geometry" />
        </mxCell>
        <mxCell id="c2LqVDU84PMeEA8C6nv5-83" value="MyComments | Array[Comment&lt;span style=&quot;background-color: initial;&quot;&gt;]&lt;/span&gt;" style="text;strokeColor=none;fillColor=none;align=left;verticalAlign=top;spacingLeft=4;spacingRight=4;overflow=hidden;rotatable=0;points=[[0,0.5],[1,0.5]];portConstraint=eastwest;whiteSpace=wrap;html=1;" parent="c2LqVDU84PMeEA8C6nv5-23" vertex="1">
          <mxGeometry y="182" width="190" height="26" as="geometry" />
        </mxCell>
        <mxCell id="c2LqVDU84PMeEA8C6nv5-84" value="Reports | Array[Report]" style="text;strokeColor=none;fillColor=none;align=left;verticalAlign=top;spacingLeft=4;spacingRight=4;overflow=hidden;rotatable=0;points=[[0,0.5],[1,0.5]];portConstraint=eastwest;whiteSpace=wrap;html=1;" parent="c2LqVDU84PMeEA8C6nv5-23" vertex="1">
          <mxGeometry y="208" width="190" height="26" as="geometry" />
        </mxCell>
        <mxCell id="c2LqVDU84PMeEA8C6nv5-115" value="_id | ObjectId" style="text;strokeColor=none;fillColor=none;align=left;verticalAlign=top;spacingLeft=4;spacingRight=4;overflow=hidden;rotatable=0;points=[[0,0.5],[1,0.5]];portConstraint=eastwest;whiteSpace=wrap;html=1;" parent="c2LqVDU84PMeEA8C6nv5-23" vertex="1">
          <mxGeometry y="234" width="190" height="26" as="geometry" />
        </mxCell>
        <mxCell id="c2LqVDU84PMeEA8C6nv5-123" value="isBlocked | Boolean" style="text;strokeColor=none;fillColor=none;align=left;verticalAlign=top;spacingLeft=4;spacingRight=4;overflow=hidden;rotatable=0;points=[[0,0.5],[1,0.5]];portConstraint=eastwest;whiteSpace=wrap;html=1;" parent="c2LqVDU84PMeEA8C6nv5-23" vertex="1">
          <mxGeometry y="260" width="190" height="26" as="geometry" />
        </mxCell>
        <mxCell id="c2LqVDU84PMeEA8C6nv5-126" value="BlockedDuration | BlockDuration" style="text;strokeColor=none;fillColor=none;align=left;verticalAlign=top;spacingLeft=4;spacingRight=4;overflow=hidden;rotatable=0;points=[[0,0.5],[1,0.5]];portConstraint=eastwest;whiteSpace=wrap;html=1;" parent="c2LqVDU84PMeEA8C6nv5-23" vertex="1">
          <mxGeometry y="286" width="190" height="26" as="geometry" />
        </mxCell>
        <mxCell id="c2LqVDU84PMeEA8C6nv5-127" value="BlockedAt | Date" style="text;strokeColor=none;fillColor=none;align=left;verticalAlign=top;spacingLeft=4;spacingRight=4;overflow=hidden;rotatable=0;points=[[0,0.5],[1,0.5]];portConstraint=eastwest;whiteSpace=wrap;html=1;" parent="c2LqVDU84PMeEA8C6nv5-23" vertex="1">
          <mxGeometry y="312" width="190" height="26" as="geometry" />
        </mxCell>
        <mxCell id="c2LqVDU84PMeEA8C6nv5-129" value="isLocked | Boolean" style="text;strokeColor=none;fillColor=none;align=left;verticalAlign=top;spacingLeft=4;spacingRight=4;overflow=hidden;rotatable=0;points=[[0,0.5],[1,0.5]];portConstraint=eastwest;whiteSpace=wrap;html=1;" parent="c2LqVDU84PMeEA8C6nv5-23" vertex="1">
          <mxGeometry y="338" width="190" height="26" as="geometry" />
        </mxCell>
        <mxCell id="c2LqVDU84PMeEA8C6nv5-130" value="LockedAt | Date" style="text;strokeColor=none;fillColor=none;align=left;verticalAlign=top;spacingLeft=4;spacingRight=4;overflow=hidden;rotatable=0;points=[[0,0.5],[1,0.5]];portConstraint=eastwest;whiteSpace=wrap;html=1;" parent="c2LqVDU84PMeEA8C6nv5-23" vertex="1">
          <mxGeometry y="364" width="190" height="26" as="geometry" />
        </mxCell>
        <mxCell id="c2LqVDU84PMeEA8C6nv5-131" value="Strikes | Number" style="text;strokeColor=none;fillColor=none;align=left;verticalAlign=top;spacingLeft=4;spacingRight=4;overflow=hidden;rotatable=0;points=[[0,0.5],[1,0.5]];portConstraint=eastwest;whiteSpace=wrap;html=1;" parent="c2LqVDU84PMeEA8C6nv5-23" vertex="1">
          <mxGeometry y="390" width="190" height="26" as="geometry" />
        </mxCell>
        <mxCell id="c2LqVDU84PMeEA8C6nv5-34" value="&lt;b&gt;Name&lt;/b&gt;" style="swimlane;fontStyle=0;childLayout=stackLayout;horizontal=1;startSize=26;fillColor=#60a917;horizontalStack=0;resizeParent=1;resizeParentMax=0;resizeLast=0;collapsible=1;marginBottom=0;whiteSpace=wrap;html=1;fontColor=#ffffff;strokeColor=#2D7600;" parent="1" vertex="1">
          <mxGeometry x="394" y="307" width="140" height="104" as="geometry" />
        </mxCell>
        <mxCell id="c2LqVDU84PMeEA8C6nv5-35" value="First | String | Required" style="text;strokeColor=none;fillColor=none;align=left;verticalAlign=top;spacingLeft=4;spacingRight=4;overflow=hidden;rotatable=0;points=[[0,0.5],[1,0.5]];portConstraint=eastwest;whiteSpace=wrap;html=1;" parent="c2LqVDU84PMeEA8C6nv5-34" vertex="1">
          <mxGeometry y="26" width="140" height="26" as="geometry" />
        </mxCell>
        <mxCell id="c2LqVDU84PMeEA8C6nv5-40" value="Middle | String" style="text;strokeColor=none;fillColor=none;align=left;verticalAlign=top;spacingLeft=4;spacingRight=4;overflow=hidden;rotatable=0;points=[[0,0.5],[1,0.5]];portConstraint=eastwest;whiteSpace=wrap;html=1;" parent="c2LqVDU84PMeEA8C6nv5-34" vertex="1">
          <mxGeometry y="52" width="140" height="26" as="geometry" />
        </mxCell>
        <mxCell id="c2LqVDU84PMeEA8C6nv5-41" value="Last | String | Required" style="text;strokeColor=none;fillColor=none;align=left;verticalAlign=top;spacingLeft=4;spacingRight=4;overflow=hidden;rotatable=0;points=[[0,0.5],[1,0.5]];portConstraint=eastwest;whiteSpace=wrap;html=1;" parent="c2LqVDU84PMeEA8C6nv5-34" vertex="1">
          <mxGeometry y="78" width="140" height="26" as="geometry" />
        </mxCell>
        <mxCell id="c2LqVDU84PMeEA8C6nv5-110" style="edgeStyle=orthogonalEdgeStyle;rounded=0;orthogonalLoop=1;jettySize=auto;html=1;exitX=0.5;exitY=1;exitDx=0;exitDy=0;entryX=0.5;entryY=0;entryDx=0;entryDy=0;" parent="1" source="c2LqVDU84PMeEA8C6nv5-38" target="c2LqVDU84PMeEA8C6nv5-89" edge="1">
          <mxGeometry relative="1" as="geometry" />
        </mxCell>
        <mxCell id="c2LqVDU84PMeEA8C6nv5-111" style="edgeStyle=orthogonalEdgeStyle;rounded=0;orthogonalLoop=1;jettySize=auto;html=1;exitX=0.5;exitY=1;exitDx=0;exitDy=0;entryX=0.5;entryY=0;entryDx=0;entryDy=0;" parent="1" source="c2LqVDU84PMeEA8C6nv5-38" target="c2LqVDU84PMeEA8C6nv5-97" edge="1">
          <mxGeometry relative="1" as="geometry" />
        </mxCell>
        <mxCell id="c2LqVDU84PMeEA8C6nv5-112" style="edgeStyle=orthogonalEdgeStyle;rounded=0;orthogonalLoop=1;jettySize=auto;html=1;exitX=0.5;exitY=1;exitDx=0;exitDy=0;entryX=0.5;entryY=0;entryDx=0;entryDy=0;" parent="1" source="c2LqVDU84PMeEA8C6nv5-38" target="c2LqVDU84PMeEA8C6nv5-104" edge="1">
          <mxGeometry relative="1" as="geometry" />
        </mxCell>
        <mxCell id="c2LqVDU84PMeEA8C6nv5-38" value="&lt;b&gt;Reports&lt;/b&gt;" style="swimlane;fontStyle=0;childLayout=stackLayout;horizontal=1;startSize=26;fillColor=#a20025;horizontalStack=0;resizeParent=1;resizeParentMax=0;resizeLast=0;collapsible=1;marginBottom=0;whiteSpace=wrap;html=1;fontColor=#ffffff;strokeColor=#6F0000;" parent="1" vertex="1">
          <mxGeometry x="304" y="800" width="150" height="156" as="geometry" />
        </mxCell>
        <mxCell id="c2LqVDU84PMeEA8C6nv5-39" value="CreatedBy | UserId" style="text;strokeColor=none;fillColor=none;align=left;verticalAlign=top;spacingLeft=4;spacingRight=4;overflow=hidden;rotatable=0;points=[[0,0.5],[1,0.5]];portConstraint=eastwest;whiteSpace=wrap;html=1;" parent="c2LqVDU84PMeEA8C6nv5-38" vertex="1">
          <mxGeometry y="26" width="150" height="26" as="geometry" />
        </mxCell>
        <mxCell id="c2LqVDU84PMeEA8C6nv5-85" value="ReportedAt | Date" style="text;strokeColor=none;fillColor=none;align=left;verticalAlign=top;spacingLeft=4;spacingRight=4;overflow=hidden;rotatable=0;points=[[0,0.5],[1,0.5]];portConstraint=eastwest;whiteSpace=wrap;html=1;" parent="c2LqVDU84PMeEA8C6nv5-38" vertex="1">
          <mxGeometry y="52" width="150" height="26" as="geometry" />
        </mxCell>
        <mxCell id="c2LqVDU84PMeEA8C6nv5-86" value="ReportType | ReportType" style="text;strokeColor=none;fillColor=none;align=left;verticalAlign=top;spacingLeft=4;spacingRight=4;overflow=hidden;rotatable=0;points=[[0,0.5],[1,0.5]];portConstraint=eastwest;whiteSpace=wrap;html=1;" parent="c2LqVDU84PMeEA8C6nv5-38" vertex="1">
          <mxGeometry y="78" width="150" height="26" as="geometry" />
        </mxCell>
        <mxCell id="c2LqVDU84PMeEA8C6nv5-87" value="ReportContent | String" style="text;strokeColor=none;fillColor=none;align=left;verticalAlign=top;spacingLeft=4;spacingRight=4;overflow=hidden;rotatable=0;points=[[0,0.5],[1,0.5]];portConstraint=eastwest;whiteSpace=wrap;html=1;" parent="c2LqVDU84PMeEA8C6nv5-38" vertex="1">
          <mxGeometry y="104" width="150" height="26" as="geometry" />
        </mxCell>
        <mxCell id="c2LqVDU84PMeEA8C6nv5-132" value="_id | ObjectId" style="text;strokeColor=none;fillColor=none;align=left;verticalAlign=top;spacingLeft=4;spacingRight=4;overflow=hidden;rotatable=0;points=[[0,0.5],[1,0.5]];portConstraint=eastwest;whiteSpace=wrap;html=1;" parent="c2LqVDU84PMeEA8C6nv5-38" vertex="1">
          <mxGeometry y="130" width="150" height="26" as="geometry" />
        </mxCell>
        <mxCell id="c2LqVDU84PMeEA8C6nv5-28" style="edgeStyle=orthogonalEdgeStyle;rounded=0;orthogonalLoop=1;jettySize=auto;html=1;exitX=1;exitY=0.5;exitDx=0;exitDy=0;" parent="1" source="c2LqVDU84PMeEA8C6nv5-26" target="c2LqVDU84PMeEA8C6nv5-34" edge="1">
          <mxGeometry relative="1" as="geometry">
            <mxPoint x="420" y="359.3103448275863" as="targetPoint" />
          </mxGeometry>
        </mxCell>
        <mxCell id="c2LqVDU84PMeEA8C6nv5-54" value="&lt;b&gt;Posts&lt;/b&gt;" style="swimlane;fontStyle=0;childLayout=stackLayout;horizontal=1;startSize=26;fillColor=#1ba1e2;horizontalStack=0;resizeParent=1;resizeParentMax=0;resizeLast=0;collapsible=1;marginBottom=0;whiteSpace=wrap;html=1;fontColor=#ffffff;strokeColor=#006EAF;" parent="1" vertex="1">
          <mxGeometry x="374" y="451" width="180" height="208" as="geometry" />
        </mxCell>
        <mxCell id="c2LqVDU84PMeEA8C6nv5-55" value="CreatedBy | UserId" style="text;strokeColor=none;fillColor=none;align=left;verticalAlign=top;spacingLeft=4;spacingRight=4;overflow=hidden;rotatable=0;points=[[0,0.5],[1,0.5]];portConstraint=eastwest;whiteSpace=wrap;html=1;" parent="c2LqVDU84PMeEA8C6nv5-54" vertex="1">
          <mxGeometry y="26" width="180" height="26" as="geometry" />
        </mxCell>
        <mxCell id="c2LqVDU84PMeEA8C6nv5-57" value="CreatedAt | Date" style="text;strokeColor=none;fillColor=none;align=left;verticalAlign=top;spacingLeft=4;spacingRight=4;overflow=hidden;rotatable=0;points=[[0,0.5],[1,0.5]];portConstraint=eastwest;whiteSpace=wrap;html=1;" parent="c2LqVDU84PMeEA8C6nv5-54" vertex="1">
          <mxGeometry y="52" width="180" height="26" as="geometry" />
        </mxCell>
        <mxCell id="c2LqVDU84PMeEA8C6nv5-58" value="Content | String" style="text;strokeColor=none;fillColor=none;align=left;verticalAlign=top;spacingLeft=4;spacingRight=4;overflow=hidden;rotatable=0;points=[[0,0.5],[1,0.5]];portConstraint=eastwest;whiteSpace=wrap;html=1;" parent="c2LqVDU84PMeEA8C6nv5-54" vertex="1">
          <mxGeometry y="78" width="180" height="26" as="geometry" />
        </mxCell>
        <mxCell id="c2LqVDU84PMeEA8C6nv5-59" value="Likes | Array[UserId]" style="text;strokeColor=none;fillColor=none;align=left;verticalAlign=top;spacingLeft=4;spacingRight=4;overflow=hidden;rotatable=0;points=[[0,0.5],[1,0.5]];portConstraint=eastwest;whiteSpace=wrap;html=1;" parent="c2LqVDU84PMeEA8C6nv5-54" vertex="1">
          <mxGeometry y="104" width="180" height="26" as="geometry" />
        </mxCell>
        <mxCell id="c2LqVDU84PMeEA8C6nv5-60" value="Comments | Array[Comment]" style="text;strokeColor=none;fillColor=none;align=left;verticalAlign=top;spacingLeft=4;spacingRight=4;overflow=hidden;rotatable=0;points=[[0,0.5],[1,0.5]];portConstraint=eastwest;whiteSpace=wrap;html=1;" parent="c2LqVDU84PMeEA8C6nv5-54" vertex="1">
          <mxGeometry y="130" width="180" height="26" as="geometry" />
        </mxCell>
        <mxCell id="c2LqVDU84PMeEA8C6nv5-75" value="Reports | Array[Report]" style="text;strokeColor=none;fillColor=none;align=left;verticalAlign=top;spacingLeft=4;spacingRight=4;overflow=hidden;rotatable=0;points=[[0,0.5],[1,0.5]];portConstraint=eastwest;whiteSpace=wrap;html=1;" parent="c2LqVDU84PMeEA8C6nv5-54" vertex="1">
          <mxGeometry y="156" width="180" height="26" as="geometry" />
        </mxCell>
        <mxCell id="c2LqVDU84PMeEA8C6nv5-114" value="_id | ObjectId" style="text;strokeColor=none;fillColor=none;align=left;verticalAlign=top;spacingLeft=4;spacingRight=4;overflow=hidden;rotatable=0;points=[[0,0.5],[1,0.5]];portConstraint=eastwest;whiteSpace=wrap;html=1;" parent="c2LqVDU84PMeEA8C6nv5-54" vertex="1">
          <mxGeometry y="182" width="180" height="26" as="geometry" />
        </mxCell>
        <mxCell id="c2LqVDU84PMeEA8C6nv5-56" style="edgeStyle=orthogonalEdgeStyle;rounded=0;orthogonalLoop=1;jettySize=auto;html=1;exitX=1;exitY=0.5;exitDx=0;exitDy=0;entryX=0;entryY=0.5;entryDx=0;entryDy=0;" parent="1" source="c2LqVDU84PMeEA8C6nv5-52" target="c2LqVDU84PMeEA8C6nv5-54" edge="1">
          <mxGeometry relative="1" as="geometry" />
        </mxCell>
        <mxCell id="c2LqVDU84PMeEA8C6nv5-69" value="&lt;b&gt;Comments&lt;/b&gt;" style="swimlane;fontStyle=0;childLayout=stackLayout;horizontal=1;startSize=26;fillColor=#0050ef;horizontalStack=0;resizeParent=1;resizeParentMax=0;resizeLast=0;collapsible=1;marginBottom=0;whiteSpace=wrap;html=1;fontColor=#ffffff;strokeColor=#001DBC;" parent="1" vertex="1">
          <mxGeometry x="610" y="618" width="140" height="182" as="geometry" />
        </mxCell>
        <mxCell id="c2LqVDU84PMeEA8C6nv5-70" value="CreatedBy | UserId" style="text;strokeColor=none;fillColor=none;align=left;verticalAlign=top;spacingLeft=4;spacingRight=4;overflow=hidden;rotatable=0;points=[[0,0.5],[1,0.5]];portConstraint=eastwest;whiteSpace=wrap;html=1;" parent="c2LqVDU84PMeEA8C6nv5-69" vertex="1">
          <mxGeometry y="26" width="140" height="26" as="geometry" />
        </mxCell>
        <mxCell id="c2LqVDU84PMeEA8C6nv5-71" value="CreatedAt | Date" style="text;strokeColor=none;fillColor=none;align=left;verticalAlign=top;spacingLeft=4;spacingRight=4;overflow=hidden;rotatable=0;points=[[0,0.5],[1,0.5]];portConstraint=eastwest;whiteSpace=wrap;html=1;" parent="c2LqVDU84PMeEA8C6nv5-69" vertex="1">
          <mxGeometry y="52" width="140" height="26" as="geometry" />
        </mxCell>
        <mxCell id="c2LqVDU84PMeEA8C6nv5-72" value="Content | String" style="text;strokeColor=none;fillColor=none;align=left;verticalAlign=top;spacingLeft=4;spacingRight=4;overflow=hidden;rotatable=0;points=[[0,0.5],[1,0.5]];portConstraint=eastwest;whiteSpace=wrap;html=1;" parent="c2LqVDU84PMeEA8C6nv5-69" vertex="1">
          <mxGeometry y="78" width="140" height="26" as="geometry" />
        </mxCell>
        <mxCell id="c2LqVDU84PMeEA8C6nv5-73" value="Likes | Array[UserId]" style="text;strokeColor=none;fillColor=none;align=left;verticalAlign=top;spacingLeft=4;spacingRight=4;overflow=hidden;rotatable=0;points=[[0,0.5],[1,0.5]];portConstraint=eastwest;whiteSpace=wrap;html=1;" parent="c2LqVDU84PMeEA8C6nv5-69" vertex="1">
          <mxGeometry y="104" width="140" height="26" as="geometry" />
        </mxCell>
        <mxCell id="c2LqVDU84PMeEA8C6nv5-74" value="Reports | Array[Report]" style="text;strokeColor=none;fillColor=none;align=left;verticalAlign=top;spacingLeft=4;spacingRight=4;overflow=hidden;rotatable=0;points=[[0,0.5],[1,0.5]];portConstraint=eastwest;whiteSpace=wrap;html=1;" parent="c2LqVDU84PMeEA8C6nv5-69" vertex="1">
          <mxGeometry y="130" width="140" height="26" as="geometry" />
        </mxCell>
        <mxCell id="c2LqVDU84PMeEA8C6nv5-113" value="_id | ObjectId" style="text;strokeColor=none;fillColor=none;align=left;verticalAlign=top;spacingLeft=4;spacingRight=4;overflow=hidden;rotatable=0;points=[[0,0.5],[1,0.5]];portConstraint=eastwest;whiteSpace=wrap;html=1;" parent="c2LqVDU84PMeEA8C6nv5-69" vertex="1">
          <mxGeometry y="156" width="140" height="26" as="geometry" />
        </mxCell>
        <mxCell id="c2LqVDU84PMeEA8C6nv5-76" style="edgeStyle=orthogonalEdgeStyle;rounded=0;orthogonalLoop=1;jettySize=auto;html=1;exitX=1;exitY=0.5;exitDx=0;exitDy=0;" parent="1" source="c2LqVDU84PMeEA8C6nv5-60" target="c2LqVDU84PMeEA8C6nv5-69" edge="1">
          <mxGeometry relative="1" as="geometry" />
        </mxCell>
        <mxCell id="c2LqVDU84PMeEA8C6nv5-82" value="" style="group" parent="1" vertex="1" connectable="0">
          <mxGeometry x="160" y="100" width="469" height="160" as="geometry" />
        </mxCell>
        <mxCell id="c2LqVDU84PMeEA8C6nv5-10" style="edgeStyle=orthogonalEdgeStyle;rounded=0;orthogonalLoop=1;jettySize=auto;html=1;exitX=1;exitY=0.5;exitDx=0;exitDy=0;" parent="c2LqVDU84PMeEA8C6nv5-82" source="c2LqVDU84PMeEA8C6nv5-4" target="c2LqVDU84PMeEA8C6nv5-7" edge="1">
          <mxGeometry relative="1" as="geometry" />
        </mxCell>
        <mxCell id="c2LqVDU84PMeEA8C6nv5-16" style="edgeStyle=orthogonalEdgeStyle;rounded=0;orthogonalLoop=1;jettySize=auto;html=1;exitX=0.5;exitY=1;exitDx=0;exitDy=0;" parent="c2LqVDU84PMeEA8C6nv5-82" source="c2LqVDU84PMeEA8C6nv5-4" target="c2LqVDU84PMeEA8C6nv5-15" edge="1">
          <mxGeometry relative="1" as="geometry" />
        </mxCell>
        <mxCell id="c2LqVDU84PMeEA8C6nv5-20" style="edgeStyle=orthogonalEdgeStyle;rounded=0;orthogonalLoop=1;jettySize=auto;html=1;exitX=0;exitY=0.5;exitDx=0;exitDy=0;entryX=0;entryY=0.5;entryDx=0;entryDy=0;" parent="c2LqVDU84PMeEA8C6nv5-82" source="c2LqVDU84PMeEA8C6nv5-4" target="c2LqVDU84PMeEA8C6nv5-6" edge="1">
          <mxGeometry relative="1" as="geometry" />
        </mxCell>
        <mxCell id="c2LqVDU84PMeEA8C6nv5-79" style="edgeStyle=orthogonalEdgeStyle;rounded=0;orthogonalLoop=1;jettySize=auto;html=1;exitX=0;exitY=0.25;exitDx=0;exitDy=0;entryX=1;entryY=0.25;entryDx=0;entryDy=0;" parent="c2LqVDU84PMeEA8C6nv5-82" source="c2LqVDU84PMeEA8C6nv5-4" target="c2LqVDU84PMeEA8C6nv5-77" edge="1">
          <mxGeometry relative="1" as="geometry" />
        </mxCell>
        <mxCell id="c2LqVDU84PMeEA8C6nv5-4" value="Users Model" style="rounded=1;whiteSpace=wrap;html=1;fillColor=#008080;strokeColor=#003B3B;fontColor=#ffffff;" parent="c2LqVDU84PMeEA8C6nv5-82" vertex="1">
          <mxGeometry x="199" width="110" height="40" as="geometry" />
        </mxCell>
        <mxCell id="c2LqVDU84PMeEA8C6nv5-81" style="edgeStyle=orthogonalEdgeStyle;rounded=0;orthogonalLoop=1;jettySize=auto;html=1;exitX=0;exitY=0.25;exitDx=0;exitDy=0;entryX=1;entryY=0.75;entryDx=0;entryDy=0;" parent="c2LqVDU84PMeEA8C6nv5-82" source="c2LqVDU84PMeEA8C6nv5-6" target="c2LqVDU84PMeEA8C6nv5-77" edge="1">
          <mxGeometry relative="1" as="geometry" />
        </mxCell>
        <mxCell id="c2LqVDU84PMeEA8C6nv5-6" value="Comments Model" style="rounded=1;whiteSpace=wrap;html=1;fillColor=#008080;strokeColor=#003B3B;fontColor=#ffffff;" parent="c2LqVDU84PMeEA8C6nv5-82" vertex="1">
          <mxGeometry x="199" y="120" width="110" height="40" as="geometry" />
        </mxCell>
        <mxCell id="c2LqVDU84PMeEA8C6nv5-11" style="edgeStyle=orthogonalEdgeStyle;rounded=0;orthogonalLoop=1;jettySize=auto;html=1;exitX=0.5;exitY=1;exitDx=0;exitDy=0;" parent="c2LqVDU84PMeEA8C6nv5-82" source="c2LqVDU84PMeEA8C6nv5-7" target="c2LqVDU84PMeEA8C6nv5-8" edge="1">
          <mxGeometry relative="1" as="geometry" />
        </mxCell>
        <mxCell id="c2LqVDU84PMeEA8C6nv5-7" value="Projects Model" style="rounded=1;whiteSpace=wrap;html=1;fillColor=#008080;strokeColor=#003B3B;fontColor=#ffffff;" parent="c2LqVDU84PMeEA8C6nv5-82" vertex="1">
          <mxGeometry x="359" width="110" height="40" as="geometry" />
        </mxCell>
        <mxCell id="c2LqVDU84PMeEA8C6nv5-8" value="Tasks Model" style="rounded=1;whiteSpace=wrap;html=1;fillColor=#008080;strokeColor=#003B3B;fontColor=#ffffff;" parent="c2LqVDU84PMeEA8C6nv5-82" vertex="1">
          <mxGeometry x="359" y="60" width="110" height="40" as="geometry" />
        </mxCell>
        <mxCell id="c2LqVDU84PMeEA8C6nv5-12" style="edgeStyle=orthogonalEdgeStyle;rounded=0;orthogonalLoop=1;jettySize=auto;html=1;exitX=0.5;exitY=1;exitDx=0;exitDy=0;entryX=1;entryY=0.5;entryDx=0;entryDy=0;" parent="c2LqVDU84PMeEA8C6nv5-82" source="c2LqVDU84PMeEA8C6nv5-8" target="c2LqVDU84PMeEA8C6nv5-8" edge="1">
          <mxGeometry relative="1" as="geometry" />
        </mxCell>
        <mxCell id="c2LqVDU84PMeEA8C6nv5-18" style="edgeStyle=orthogonalEdgeStyle;rounded=0;orthogonalLoop=1;jettySize=auto;html=1;exitX=0.5;exitY=1;exitDx=0;exitDy=0;entryX=0.5;entryY=0;entryDx=0;entryDy=0;" parent="c2LqVDU84PMeEA8C6nv5-82" source="c2LqVDU84PMeEA8C6nv5-15" target="c2LqVDU84PMeEA8C6nv5-6" edge="1">
          <mxGeometry relative="1" as="geometry" />
        </mxCell>
        <mxCell id="c2LqVDU84PMeEA8C6nv5-80" style="edgeStyle=orthogonalEdgeStyle;rounded=0;orthogonalLoop=1;jettySize=auto;html=1;exitX=0;exitY=0.5;exitDx=0;exitDy=0;entryX=1;entryY=0.5;entryDx=0;entryDy=0;" parent="c2LqVDU84PMeEA8C6nv5-82" source="c2LqVDU84PMeEA8C6nv5-15" target="c2LqVDU84PMeEA8C6nv5-77" edge="1">
          <mxGeometry relative="1" as="geometry" />
        </mxCell>
        <mxCell id="c2LqVDU84PMeEA8C6nv5-15" value="Posts Model" style="rounded=1;whiteSpace=wrap;html=1;fillColor=#008080;strokeColor=#003B3B;fontColor=#ffffff;" parent="c2LqVDU84PMeEA8C6nv5-82" vertex="1">
          <mxGeometry x="199" y="60" width="110" height="40" as="geometry" />
        </mxCell>
        <mxCell id="c2LqVDU84PMeEA8C6nv5-77" value="Reports Model" style="rounded=1;whiteSpace=wrap;html=1;fillColor=#008080;strokeColor=#003B3B;fontColor=#ffffff;" parent="c2LqVDU84PMeEA8C6nv5-82" vertex="1">
          <mxGeometry y="60" width="110" height="40" as="geometry" />
        </mxCell>
        <mxCell id="c2LqVDU84PMeEA8C6nv5-89" value="&lt;b&gt;UserReports&lt;/b&gt;" style="swimlane;fontStyle=0;childLayout=stackLayout;horizontal=1;startSize=26;fillColor=#d80073;horizontalStack=0;resizeParent=1;resizeParentMax=0;resizeLast=0;collapsible=1;marginBottom=0;whiteSpace=wrap;html=1;fontColor=#ffffff;strokeColor=#A50040;" parent="1" vertex="1">
          <mxGeometry x="120" y="1034" width="150" height="78" as="geometry" />
        </mxCell>
        <mxCell id="c2LqVDU84PMeEA8C6nv5-92" value="...Reports" style="text;strokeColor=none;fillColor=none;align=left;verticalAlign=top;spacingLeft=4;spacingRight=4;overflow=hidden;rotatable=0;points=[[0,0.5],[1,0.5]];portConstraint=eastwest;whiteSpace=wrap;html=1;" parent="c2LqVDU84PMeEA8C6nv5-89" vertex="1">
          <mxGeometry y="26" width="150" height="26" as="geometry" />
        </mxCell>
        <mxCell id="c2LqVDU84PMeEA8C6nv5-93" value="ReportUser | UserId" style="text;strokeColor=none;fillColor=none;align=left;verticalAlign=top;spacingLeft=4;spacingRight=4;overflow=hidden;rotatable=0;points=[[0,0.5],[1,0.5]];portConstraint=eastwest;whiteSpace=wrap;html=1;" parent="c2LqVDU84PMeEA8C6nv5-89" vertex="1">
          <mxGeometry y="52" width="150" height="26" as="geometry" />
        </mxCell>
        <mxCell id="c2LqVDU84PMeEA8C6nv5-97" value="&lt;b&gt;PostReports&lt;/b&gt;" style="swimlane;fontStyle=0;childLayout=stackLayout;horizontal=1;startSize=26;fillColor=#d80073;horizontalStack=0;resizeParent=1;resizeParentMax=0;resizeLast=0;collapsible=1;marginBottom=0;whiteSpace=wrap;html=1;fontColor=#ffffff;strokeColor=#A50040;" parent="1" vertex="1">
          <mxGeometry x="304" y="1034" width="150" height="78" as="geometry" />
        </mxCell>
        <mxCell id="c2LqVDU84PMeEA8C6nv5-98" value="...Reports" style="text;strokeColor=none;fillColor=none;align=left;verticalAlign=top;spacingLeft=4;spacingRight=4;overflow=hidden;rotatable=0;points=[[0,0.5],[1,0.5]];portConstraint=eastwest;whiteSpace=wrap;html=1;" parent="c2LqVDU84PMeEA8C6nv5-97" vertex="1">
          <mxGeometry y="26" width="150" height="26" as="geometry" />
        </mxCell>
        <mxCell id="c2LqVDU84PMeEA8C6nv5-99" value="ReportPost | PostId" style="text;strokeColor=none;fillColor=none;align=left;verticalAlign=top;spacingLeft=4;spacingRight=4;overflow=hidden;rotatable=0;points=[[0,0.5],[1,0.5]];portConstraint=eastwest;whiteSpace=wrap;html=1;" parent="c2LqVDU84PMeEA8C6nv5-97" vertex="1">
          <mxGeometry y="52" width="150" height="26" as="geometry" />
        </mxCell>
        <mxCell id="c2LqVDU84PMeEA8C6nv5-104" value="&lt;b&gt;Reports&lt;/b&gt;" style="swimlane;fontStyle=0;childLayout=stackLayout;horizontal=1;startSize=26;fillColor=#d80073;horizontalStack=0;resizeParent=1;resizeParentMax=0;resizeLast=0;collapsible=1;marginBottom=0;whiteSpace=wrap;html=1;fontColor=#ffffff;strokeColor=#A50040;" parent="1" vertex="1">
          <mxGeometry x="494" y="1034" width="170" height="78" as="geometry" />
        </mxCell>
        <mxCell id="c2LqVDU84PMeEA8C6nv5-105" value="...Reports" style="text;strokeColor=none;fillColor=none;align=left;verticalAlign=top;spacingLeft=4;spacingRight=4;overflow=hidden;rotatable=0;points=[[0,0.5],[1,0.5]];portConstraint=eastwest;whiteSpace=wrap;html=1;" parent="c2LqVDU84PMeEA8C6nv5-104" vertex="1">
          <mxGeometry y="26" width="170" height="26" as="geometry" />
        </mxCell>
        <mxCell id="c2LqVDU84PMeEA8C6nv5-106" value="ReportComment | CommentId" style="text;strokeColor=none;fillColor=none;align=left;verticalAlign=top;spacingLeft=4;spacingRight=4;overflow=hidden;rotatable=0;points=[[0,0.5],[1,0.5]];portConstraint=eastwest;whiteSpace=wrap;html=1;" parent="c2LqVDU84PMeEA8C6nv5-104" vertex="1">
          <mxGeometry y="52" width="170" height="26" as="geometry" />
        </mxCell>
        <mxCell id="c2LqVDU84PMeEA8C6nv5-120" style="edgeStyle=orthogonalEdgeStyle;rounded=0;orthogonalLoop=1;jettySize=auto;html=1;exitX=1;exitY=0.5;exitDx=0;exitDy=0;entryX=0.5;entryY=0;entryDx=0;entryDy=0;" parent="1" source="c2LqVDU84PMeEA8C6nv5-84" target="c2LqVDU84PMeEA8C6nv5-38" edge="1">
          <mxGeometry relative="1" as="geometry">
            <Array as="points">
              <mxPoint x="330" y="581" />
              <mxPoint x="330" y="760" />
              <mxPoint x="379" y="760" />
            </Array>
          </mxGeometry>
        </mxCell>
        <mxCell id="c2LqVDU84PMeEA8C6nv5-121" style="edgeStyle=orthogonalEdgeStyle;rounded=0;orthogonalLoop=1;jettySize=auto;html=1;exitX=0;exitY=0.5;exitDx=0;exitDy=0;entryX=0.5;entryY=0;entryDx=0;entryDy=0;" parent="1" source="c2LqVDU84PMeEA8C6nv5-75" target="c2LqVDU84PMeEA8C6nv5-38" edge="1">
          <mxGeometry relative="1" as="geometry">
            <Array as="points">
              <mxPoint x="330" y="620" />
              <mxPoint x="330" y="760" />
              <mxPoint x="379" y="760" />
            </Array>
          </mxGeometry>
        </mxCell>
        <mxCell id="c2LqVDU84PMeEA8C6nv5-122" style="edgeStyle=orthogonalEdgeStyle;rounded=0;orthogonalLoop=1;jettySize=auto;html=1;exitX=0;exitY=0.5;exitDx=0;exitDy=0;entryX=0.5;entryY=0;entryDx=0;entryDy=0;" parent="1" source="c2LqVDU84PMeEA8C6nv5-74" target="c2LqVDU84PMeEA8C6nv5-38" edge="1">
          <mxGeometry relative="1" as="geometry">
            <Array as="points">
              <mxPoint x="610" y="760" />
              <mxPoint x="379" y="760" />
            </Array>
          </mxGeometry>
        </mxCell>
        <mxCell id="c2LqVDU84PMeEA8C6nv5-157" value="" style="edgeStyle=orthogonalEdgeStyle;rounded=0;orthogonalLoop=1;jettySize=auto;html=1;" parent="1" source="c2LqVDU84PMeEA8C6nv5-133" target="c2LqVDU84PMeEA8C6nv5-147" edge="1">
          <mxGeometry relative="1" as="geometry" />
        </mxCell>
        <mxCell id="c2LqVDU84PMeEA8C6nv5-133" value="&lt;b&gt;Projects&lt;/b&gt;" style="swimlane;fontStyle=0;childLayout=stackLayout;horizontal=1;startSize=26;fillColor=#6a00ff;horizontalStack=0;resizeParent=1;resizeParentMax=0;resizeLast=0;collapsible=1;marginBottom=0;whiteSpace=wrap;html=1;fontColor=#ffffff;strokeColor=#3700CC;" parent="1" vertex="1">
          <mxGeometry x="-320" y="358" width="150" height="260" as="geometry" />
        </mxCell>
        <mxCell id="c2LqVDU84PMeEA8C6nv5-134" value="CreatedBy | UserId" style="text;strokeColor=none;fillColor=none;align=left;verticalAlign=top;spacingLeft=4;spacingRight=4;overflow=hidden;rotatable=0;points=[[0,0.5],[1,0.5]];portConstraint=eastwest;whiteSpace=wrap;html=1;" parent="c2LqVDU84PMeEA8C6nv5-133" vertex="1">
          <mxGeometry y="26" width="150" height="26" as="geometry" />
        </mxCell>
        <mxCell id="c2LqVDU84PMeEA8C6nv5-135" value="CreatedAt | Date" style="text;strokeColor=none;fillColor=none;align=left;verticalAlign=top;spacingLeft=4;spacingRight=4;overflow=hidden;rotatable=0;points=[[0,0.5],[1,0.5]];portConstraint=eastwest;whiteSpace=wrap;html=1;" parent="c2LqVDU84PMeEA8C6nv5-133" vertex="1">
          <mxGeometry y="52" width="150" height="26" as="geometry" />
        </mxCell>
        <mxCell id="c2LqVDU84PMeEA8C6nv5-138" value="_id | ObjectId" style="text;strokeColor=none;fillColor=none;align=left;verticalAlign=top;spacingLeft=4;spacingRight=4;overflow=hidden;rotatable=0;points=[[0,0.5],[1,0.5]];portConstraint=eastwest;whiteSpace=wrap;html=1;" parent="c2LqVDU84PMeEA8C6nv5-133" vertex="1">
          <mxGeometry y="78" width="150" height="26" as="geometry" />
        </mxCell>
        <mxCell id="c2LqVDU84PMeEA8C6nv5-139" value="Description | String" style="text;strokeColor=none;fillColor=none;align=left;verticalAlign=top;spacingLeft=4;spacingRight=4;overflow=hidden;rotatable=0;points=[[0,0.5],[1,0.5]];portConstraint=eastwest;whiteSpace=wrap;html=1;" parent="c2LqVDU84PMeEA8C6nv5-133" vertex="1">
          <mxGeometry y="104" width="150" height="26" as="geometry" />
        </mxCell>
        <mxCell id="c2LqVDU84PMeEA8C6nv5-140" value="Attachments | Array[File]" style="text;strokeColor=none;fillColor=none;align=left;verticalAlign=top;spacingLeft=4;spacingRight=4;overflow=hidden;rotatable=0;points=[[0,0.5],[1,0.5]];portConstraint=eastwest;whiteSpace=wrap;html=1;" parent="c2LqVDU84PMeEA8C6nv5-133" vertex="1">
          <mxGeometry y="130" width="150" height="26" as="geometry" />
        </mxCell>
        <mxCell id="c2LqVDU84PMeEA8C6nv5-141" value="Owner | UserId" style="text;strokeColor=none;fillColor=none;align=left;verticalAlign=top;spacingLeft=4;spacingRight=4;overflow=hidden;rotatable=0;points=[[0,0.5],[1,0.5]];portConstraint=eastwest;whiteSpace=wrap;html=1;" parent="c2LqVDU84PMeEA8C6nv5-133" vertex="1">
          <mxGeometry y="156" width="150" height="26" as="geometry" />
        </mxCell>
        <mxCell id="c2LqVDU84PMeEA8C6nv5-145" value="Admins | Array[UserId]" style="text;strokeColor=none;fillColor=none;align=left;verticalAlign=top;spacingLeft=4;spacingRight=4;overflow=hidden;rotatable=0;points=[[0,0.5],[1,0.5]];portConstraint=eastwest;whiteSpace=wrap;html=1;" parent="c2LqVDU84PMeEA8C6nv5-133" vertex="1">
          <mxGeometry y="182" width="150" height="26" as="geometry" />
        </mxCell>
        <mxCell id="c2LqVDU84PMeEA8C6nv5-142" value="Members | Array[UserId]" style="text;strokeColor=none;fillColor=none;align=left;verticalAlign=top;spacingLeft=4;spacingRight=4;overflow=hidden;rotatable=0;points=[[0,0.5],[1,0.5]];portConstraint=eastwest;whiteSpace=wrap;html=1;" parent="c2LqVDU84PMeEA8C6nv5-133" vertex="1">
          <mxGeometry y="208" width="150" height="26" as="geometry" />
        </mxCell>
        <mxCell id="c2LqVDU84PMeEA8C6nv5-146" value="Tasks | Array[Task]" style="text;strokeColor=none;fillColor=none;align=left;verticalAlign=top;spacingLeft=4;spacingRight=4;overflow=hidden;rotatable=0;points=[[0,0.5],[1,0.5]];portConstraint=eastwest;whiteSpace=wrap;html=1;" parent="c2LqVDU84PMeEA8C6nv5-133" vertex="1">
          <mxGeometry y="234" width="150" height="26" as="geometry" />
        </mxCell>
        <mxCell id="c2LqVDU84PMeEA8C6nv5-147" value="&lt;b&gt;Tasks&lt;/b&gt;" style="swimlane;fontStyle=0;childLayout=stackLayout;horizontal=1;startSize=26;fillColor=#9C19FF;horizontalStack=0;resizeParent=1;resizeParentMax=0;resizeLast=0;collapsible=1;marginBottom=0;whiteSpace=wrap;html=1;fontColor=#ffffff;strokeColor=#6E26FF;" parent="1" vertex="1">
          <mxGeometry x="-430" y="670" width="370" height="312" as="geometry" />
        </mxCell>
        <mxCell id="c2LqVDU84PMeEA8C6nv5-148" value="CreatedBy | UserId" style="text;strokeColor=none;fillColor=none;align=left;verticalAlign=top;spacingLeft=4;spacingRight=4;overflow=hidden;rotatable=0;points=[[0,0.5],[1,0.5]];portConstraint=eastwest;whiteSpace=wrap;html=1;" parent="c2LqVDU84PMeEA8C6nv5-147" vertex="1">
          <mxGeometry y="26" width="370" height="26" as="geometry" />
        </mxCell>
        <mxCell id="c2LqVDU84PMeEA8C6nv5-149" value="CreatedAt | Date" style="text;strokeColor=none;fillColor=none;align=left;verticalAlign=top;spacingLeft=4;spacingRight=4;overflow=hidden;rotatable=0;points=[[0,0.5],[1,0.5]];portConstraint=eastwest;whiteSpace=wrap;html=1;" parent="c2LqVDU84PMeEA8C6nv5-147" vertex="1">
          <mxGeometry y="52" width="370" height="26" as="geometry" />
        </mxCell>
        <mxCell id="c2LqVDU84PMeEA8C6nv5-150" value="_id | ObjectId" style="text;strokeColor=none;fillColor=none;align=left;verticalAlign=top;spacingLeft=4;spacingRight=4;overflow=hidden;rotatable=0;points=[[0,0.5],[1,0.5]];portConstraint=eastwest;whiteSpace=wrap;html=1;" parent="c2LqVDU84PMeEA8C6nv5-147" vertex="1">
          <mxGeometry y="78" width="370" height="26" as="geometry" />
        </mxCell>
        <mxCell id="c2LqVDU84PMeEA8C6nv5-151" value="Description | String" style="text;strokeColor=none;fillColor=none;align=left;verticalAlign=top;spacingLeft=4;spacingRight=4;overflow=hidden;rotatable=0;points=[[0,0.5],[1,0.5]];portConstraint=eastwest;whiteSpace=wrap;html=1;" parent="c2LqVDU84PMeEA8C6nv5-147" vertex="1">
          <mxGeometry y="104" width="370" height="26" as="geometry" />
        </mxCell>
        <mxCell id="c2LqVDU84PMeEA8C6nv5-156" value="SubTasks | Array[Task]" style="text;strokeColor=none;fillColor=none;align=left;verticalAlign=top;spacingLeft=4;spacingRight=4;overflow=hidden;rotatable=0;points=[[0,0.5],[1,0.5]];portConstraint=eastwest;whiteSpace=wrap;html=1;" parent="c2LqVDU84PMeEA8C6nv5-147" vertex="1">
          <mxGeometry y="130" width="370" height="26" as="geometry" />
        </mxCell>
        <mxCell id="c2LqVDU84PMeEA8C6nv5-158" value="DueDate | Date" style="text;strokeColor=none;fillColor=none;align=left;verticalAlign=top;spacingLeft=4;spacingRight=4;overflow=hidden;rotatable=0;points=[[0,0.5],[1,0.5]];portConstraint=eastwest;whiteSpace=wrap;html=1;" parent="c2LqVDU84PMeEA8C6nv5-147" vertex="1">
          <mxGeometry y="156" width="370" height="26" as="geometry" />
        </mxCell>
        <mxCell id="c2LqVDU84PMeEA8C6nv5-159" value="AssignedTo | Array[UserId]" style="text;strokeColor=none;fillColor=none;align=left;verticalAlign=top;spacingLeft=4;spacingRight=4;overflow=hidden;rotatable=0;points=[[0,0.5],[1,0.5]];portConstraint=eastwest;whiteSpace=wrap;html=1;" parent="c2LqVDU84PMeEA8C6nv5-147" vertex="1">
          <mxGeometry y="182" width="370" height="26" as="geometry" />
        </mxCell>
        <mxCell id="c2LqVDU84PMeEA8C6nv5-164" value="Progress | Number (based on sub-tasks)" style="text;strokeColor=none;fillColor=none;align=left;verticalAlign=top;spacingLeft=4;spacingRight=4;overflow=hidden;rotatable=0;points=[[0,0.5],[1,0.5]];portConstraint=eastwest;whiteSpace=wrap;html=1;" parent="c2LqVDU84PMeEA8C6nv5-147" vertex="1">
          <mxGeometry y="208" width="370" height="26" as="geometry" />
        </mxCell>
        <mxCell id="c2LqVDU84PMeEA8C6nv5-165" value="Status |&amp;nbsp;&lt;span style=&quot;background-color: initial;&quot;&gt;&quot;Completed&quot; / &quot;In-Progress&quot; / &quot;Not Started&quot;&lt;/span&gt;" style="text;strokeColor=none;fillColor=none;align=left;verticalAlign=top;spacingLeft=4;spacingRight=4;overflow=hidden;rotatable=0;points=[[0,0.5],[1,0.5]];portConstraint=eastwest;whiteSpace=wrap;html=1;" parent="c2LqVDU84PMeEA8C6nv5-147" vertex="1">
          <mxGeometry y="234" width="370" height="26" as="geometry" />
        </mxCell>
        <mxCell id="c2LqVDU84PMeEA8C6nv5-166" value="CompletedAt | Date" style="text;strokeColor=none;fillColor=none;align=left;verticalAlign=top;spacingLeft=4;spacingRight=4;overflow=hidden;rotatable=0;points=[[0,0.5],[1,0.5]];portConstraint=eastwest;whiteSpace=wrap;html=1;" parent="c2LqVDU84PMeEA8C6nv5-147" vertex="1">
          <mxGeometry y="260" width="370" height="26" as="geometry" />
        </mxCell>
        <mxCell id="c2LqVDU84PMeEA8C6nv5-167" value="Priority | Number" style="text;strokeColor=none;fillColor=none;align=left;verticalAlign=top;spacingLeft=4;spacingRight=4;overflow=hidden;rotatable=0;points=[[0,0.5],[1,0.5]];portConstraint=eastwest;whiteSpace=wrap;html=1;" parent="c2LqVDU84PMeEA8C6nv5-147" vertex="1">
          <mxGeometry y="286" width="370" height="26" as="geometry" />
        </mxCell>
      </root>
    </mxGraphModel>
  </diagram>
  <diagram id="bO-K7wpZ-gGcwq1dTPlQ" name="Data Models - MVP">
    <mxGraphModel dx="989" dy="577" grid="1" gridSize="10" guides="1" tooltips="1" connect="1" arrows="1" fold="1" page="1" pageScale="1" pageWidth="827" pageHeight="1169" math="0" shadow="0">
      <root>
        <mxCell id="0" />
        <mxCell id="1" parent="0" />
        <mxCell id="3xDYr7Zx840NTrnuAoUs-1" value="&lt;font style=&quot;&quot;&gt;&lt;span style=&quot;font-size: 26px;&quot;&gt;&lt;b&gt;Data Models - MVP [Minimum Viable Product]&lt;/b&gt;&lt;/span&gt;&lt;/font&gt;" style="text;html=1;align=center;verticalAlign=middle;whiteSpace=wrap;rounded=0;" parent="1" vertex="1">
          <mxGeometry x="150" y="30" width="580" height="40" as="geometry" />
        </mxCell>
        <mxCell id="wisiqRYO-eeF9JqwSawh-18" value="" style="group" parent="1" vertex="1" connectable="0">
          <mxGeometry x="279" y="110" width="270" height="100" as="geometry" />
        </mxCell>
        <mxCell id="wisiqRYO-eeF9JqwSawh-3" style="edgeStyle=orthogonalEdgeStyle;rounded=0;orthogonalLoop=1;jettySize=auto;html=1;exitX=1;exitY=0.5;exitDx=0;exitDy=0;" parent="wisiqRYO-eeF9JqwSawh-18" source="wisiqRYO-eeF9JqwSawh-7" target="wisiqRYO-eeF9JqwSawh-11" edge="1">
          <mxGeometry relative="1" as="geometry" />
        </mxCell>
        <mxCell id="wisiqRYO-eeF9JqwSawh-4" style="edgeStyle=orthogonalEdgeStyle;rounded=0;orthogonalLoop=1;jettySize=auto;html=1;exitX=0.5;exitY=1;exitDx=0;exitDy=0;" parent="wisiqRYO-eeF9JqwSawh-18" source="wisiqRYO-eeF9JqwSawh-7" target="wisiqRYO-eeF9JqwSawh-16" edge="1">
          <mxGeometry relative="1" as="geometry" />
        </mxCell>
        <mxCell id="wisiqRYO-eeF9JqwSawh-7" value="Users Model" style="rounded=1;whiteSpace=wrap;html=1;fillColor=#008080;strokeColor=#003B3B;fontColor=#ffffff;" parent="wisiqRYO-eeF9JqwSawh-18" vertex="1">
          <mxGeometry width="110" height="40" as="geometry" />
        </mxCell>
        <mxCell id="wisiqRYO-eeF9JqwSawh-10" style="edgeStyle=orthogonalEdgeStyle;rounded=0;orthogonalLoop=1;jettySize=auto;html=1;exitX=0.5;exitY=1;exitDx=0;exitDy=0;" parent="wisiqRYO-eeF9JqwSawh-18" source="wisiqRYO-eeF9JqwSawh-11" target="wisiqRYO-eeF9JqwSawh-12" edge="1">
          <mxGeometry relative="1" as="geometry" />
        </mxCell>
        <mxCell id="wisiqRYO-eeF9JqwSawh-11" value="Projects Model" style="rounded=1;whiteSpace=wrap;html=1;fillColor=#008080;strokeColor=#003B3B;fontColor=#ffffff;" parent="wisiqRYO-eeF9JqwSawh-18" vertex="1">
          <mxGeometry x="160" width="110" height="40" as="geometry" />
        </mxCell>
        <mxCell id="wisiqRYO-eeF9JqwSawh-12" value="Tasks Model" style="rounded=1;whiteSpace=wrap;html=1;fillColor=#008080;strokeColor=#003B3B;fontColor=#ffffff;" parent="wisiqRYO-eeF9JqwSawh-18" vertex="1">
          <mxGeometry x="160" y="60" width="110" height="40" as="geometry" />
        </mxCell>
        <mxCell id="wisiqRYO-eeF9JqwSawh-16" value="Posts Model" style="rounded=1;whiteSpace=wrap;html=1;fillColor=#008080;strokeColor=#003B3B;fontColor=#ffffff;" parent="wisiqRYO-eeF9JqwSawh-18" vertex="1">
          <mxGeometry y="60" width="110" height="40" as="geometry" />
        </mxCell>
        <mxCell id="E_ENdN6e-ANim_YOuVph-1" value="&lt;b&gt;Users&lt;/b&gt;" style="swimlane;fontStyle=0;childLayout=stackLayout;horizontal=1;startSize=26;fillColor=#008a00;horizontalStack=0;resizeParent=1;resizeParentMax=0;resizeLast=0;collapsible=1;marginBottom=0;whiteSpace=wrap;html=1;fontColor=#ffffff;strokeColor=#005700;" parent="1" vertex="1">
          <mxGeometry x="198" y="306.5" width="190" height="234" as="geometry" />
        </mxCell>
        <mxCell id="E_ENdN6e-ANim_YOuVph-2" value="Name" style="text;strokeColor=none;fillColor=none;align=left;verticalAlign=top;spacingLeft=4;spacingRight=4;overflow=hidden;rotatable=0;points=[[0,0.5],[1,0.5]];portConstraint=eastwest;whiteSpace=wrap;html=1;" parent="E_ENdN6e-ANim_YOuVph-1" vertex="1">
          <mxGeometry y="26" width="190" height="26" as="geometry" />
        </mxCell>
        <mxCell id="E_ENdN6e-ANim_YOuVph-3" value="Nickname | String" style="text;strokeColor=none;fillColor=none;align=left;verticalAlign=top;spacingLeft=4;spacingRight=4;overflow=hidden;rotatable=0;points=[[0,0.5],[1,0.5]];portConstraint=eastwest;whiteSpace=wrap;html=1;" parent="E_ENdN6e-ANim_YOuVph-1" vertex="1">
          <mxGeometry y="52" width="190" height="26" as="geometry" />
        </mxCell>
        <mxCell id="E_ENdN6e-ANim_YOuVph-4" value="Email | String" style="text;strokeColor=none;fillColor=none;align=left;verticalAlign=top;spacingLeft=4;spacingRight=4;overflow=hidden;rotatable=0;points=[[0,0.5],[1,0.5]];portConstraint=eastwest;whiteSpace=wrap;html=1;" parent="E_ENdN6e-ANim_YOuVph-1" vertex="1">
          <mxGeometry y="78" width="190" height="26" as="geometry" />
        </mxCell>
        <mxCell id="E_ENdN6e-ANim_YOuVph-5" value="Password | String" style="text;strokeColor=none;fillColor=none;align=left;verticalAlign=top;spacingLeft=4;spacingRight=4;overflow=hidden;rotatable=0;points=[[0,0.5],[1,0.5]];portConstraint=eastwest;whiteSpace=wrap;html=1;" parent="E_ENdN6e-ANim_YOuVph-1" vertex="1">
          <mxGeometry y="104" width="190" height="26" as="geometry" />
        </mxCell>
        <mxCell id="E_ENdN6e-ANim_YOuVph-6" value="isAdmin | Boolean" style="text;strokeColor=none;fillColor=none;align=left;verticalAlign=top;spacingLeft=4;spacingRight=4;overflow=hidden;rotatable=0;points=[[0,0.5],[1,0.5]];portConstraint=eastwest;whiteSpace=wrap;html=1;" parent="E_ENdN6e-ANim_YOuVph-1" vertex="1">
          <mxGeometry y="130" width="190" height="26" as="geometry" />
        </mxCell>
        <mxCell id="E_ENdN6e-ANim_YOuVph-7" value="MyPosts | Array[Post]" style="text;strokeColor=none;fillColor=none;align=left;verticalAlign=top;spacingLeft=4;spacingRight=4;overflow=hidden;rotatable=0;points=[[0,0.5],[1,0.5]];portConstraint=eastwest;whiteSpace=wrap;html=1;" parent="E_ENdN6e-ANim_YOuVph-1" vertex="1">
          <mxGeometry y="156" width="190" height="26" as="geometry" />
        </mxCell>
        <mxCell id="E_ENdN6e-ANim_YOuVph-10" value="_id | ObjectId" style="text;strokeColor=none;fillColor=none;align=left;verticalAlign=top;spacingLeft=4;spacingRight=4;overflow=hidden;rotatable=0;points=[[0,0.5],[1,0.5]];portConstraint=eastwest;whiteSpace=wrap;html=1;" parent="E_ENdN6e-ANim_YOuVph-1" vertex="1">
          <mxGeometry y="182" width="190" height="26" as="geometry" />
        </mxCell>
        <mxCell id="XIGCg1tuGzYd7pk85exz-1" value="CreatedAt | Date" style="text;strokeColor=none;fillColor=none;align=left;verticalAlign=top;spacingLeft=4;spacingRight=4;overflow=hidden;rotatable=0;points=[[0,0.5],[1,0.5]];portConstraint=eastwest;whiteSpace=wrap;html=1;" vertex="1" parent="E_ENdN6e-ANim_YOuVph-1">
          <mxGeometry y="208" width="190" height="26" as="geometry" />
        </mxCell>
        <mxCell id="E_ENdN6e-ANim_YOuVph-17" value="&lt;b&gt;Name&lt;/b&gt;" style="swimlane;fontStyle=0;childLayout=stackLayout;horizontal=1;startSize=26;fillColor=#60a917;horizontalStack=0;resizeParent=1;resizeParentMax=0;resizeLast=0;collapsible=1;marginBottom=0;whiteSpace=wrap;html=1;fontColor=#ffffff;strokeColor=#2D7600;" parent="1" vertex="1">
          <mxGeometry x="453" y="293.5" width="140" height="104" as="geometry" />
        </mxCell>
        <mxCell id="E_ENdN6e-ANim_YOuVph-18" value="First | String | Required" style="text;strokeColor=none;fillColor=none;align=left;verticalAlign=top;spacingLeft=4;spacingRight=4;overflow=hidden;rotatable=0;points=[[0,0.5],[1,0.5]];portConstraint=eastwest;whiteSpace=wrap;html=1;" parent="E_ENdN6e-ANim_YOuVph-17" vertex="1">
          <mxGeometry y="26" width="140" height="26" as="geometry" />
        </mxCell>
        <mxCell id="E_ENdN6e-ANim_YOuVph-19" value="Middle | String" style="text;strokeColor=none;fillColor=none;align=left;verticalAlign=top;spacingLeft=4;spacingRight=4;overflow=hidden;rotatable=0;points=[[0,0.5],[1,0.5]];portConstraint=eastwest;whiteSpace=wrap;html=1;" parent="E_ENdN6e-ANim_YOuVph-17" vertex="1">
          <mxGeometry y="52" width="140" height="26" as="geometry" />
        </mxCell>
        <mxCell id="E_ENdN6e-ANim_YOuVph-20" value="Last | String | Required" style="text;strokeColor=none;fillColor=none;align=left;verticalAlign=top;spacingLeft=4;spacingRight=4;overflow=hidden;rotatable=0;points=[[0,0.5],[1,0.5]];portConstraint=eastwest;whiteSpace=wrap;html=1;" parent="E_ENdN6e-ANim_YOuVph-17" vertex="1">
          <mxGeometry y="78" width="140" height="26" as="geometry" />
        </mxCell>
        <mxCell id="E_ENdN6e-ANim_YOuVph-21" style="edgeStyle=orthogonalEdgeStyle;rounded=0;orthogonalLoop=1;jettySize=auto;html=1;exitX=1;exitY=0.5;exitDx=0;exitDy=0;" parent="1" source="E_ENdN6e-ANim_YOuVph-2" target="E_ENdN6e-ANim_YOuVph-17" edge="1">
          <mxGeometry relative="1" as="geometry" />
        </mxCell>
        <mxCell id="HLlI4vMvWzFvsQrsgA7w-1" value="&lt;b&gt;Posts&lt;/b&gt;" style="swimlane;fontStyle=0;childLayout=stackLayout;horizontal=1;startSize=26;fillColor=#1ba1e2;horizontalStack=0;resizeParent=1;resizeParentMax=0;resizeLast=0;collapsible=1;marginBottom=0;whiteSpace=wrap;html=1;fontColor=#ffffff;strokeColor=#006EAF;" parent="1" vertex="1">
          <mxGeometry x="449" y="428.5" width="180" height="156" as="geometry" />
        </mxCell>
        <mxCell id="HLlI4vMvWzFvsQrsgA7w-2" value="CreatedBy | UserId" style="text;strokeColor=none;fillColor=none;align=left;verticalAlign=top;spacingLeft=4;spacingRight=4;overflow=hidden;rotatable=0;points=[[0,0.5],[1,0.5]];portConstraint=eastwest;whiteSpace=wrap;html=1;" parent="HLlI4vMvWzFvsQrsgA7w-1" vertex="1">
          <mxGeometry y="26" width="180" height="26" as="geometry" />
        </mxCell>
        <mxCell id="HLlI4vMvWzFvsQrsgA7w-3" value="CreatedAt | Date" style="text;strokeColor=none;fillColor=none;align=left;verticalAlign=top;spacingLeft=4;spacingRight=4;overflow=hidden;rotatable=0;points=[[0,0.5],[1,0.5]];portConstraint=eastwest;whiteSpace=wrap;html=1;" parent="HLlI4vMvWzFvsQrsgA7w-1" vertex="1">
          <mxGeometry y="52" width="180" height="26" as="geometry" />
        </mxCell>
        <mxCell id="HLlI4vMvWzFvsQrsgA7w-4" value="Content | String" style="text;strokeColor=none;fillColor=none;align=left;verticalAlign=top;spacingLeft=4;spacingRight=4;overflow=hidden;rotatable=0;points=[[0,0.5],[1,0.5]];portConstraint=eastwest;whiteSpace=wrap;html=1;" parent="HLlI4vMvWzFvsQrsgA7w-1" vertex="1">
          <mxGeometry y="78" width="180" height="26" as="geometry" />
        </mxCell>
        <mxCell id="HLlI4vMvWzFvsQrsgA7w-5" value="Likes | Array[UserId]" style="text;strokeColor=none;fillColor=none;align=left;verticalAlign=top;spacingLeft=4;spacingRight=4;overflow=hidden;rotatable=0;points=[[0,0.5],[1,0.5]];portConstraint=eastwest;whiteSpace=wrap;html=1;" parent="HLlI4vMvWzFvsQrsgA7w-1" vertex="1">
          <mxGeometry y="104" width="180" height="26" as="geometry" />
        </mxCell>
        <mxCell id="HLlI4vMvWzFvsQrsgA7w-8" value="_id | ObjectId" style="text;strokeColor=none;fillColor=none;align=left;verticalAlign=top;spacingLeft=4;spacingRight=4;overflow=hidden;rotatable=0;points=[[0,0.5],[1,0.5]];portConstraint=eastwest;whiteSpace=wrap;html=1;" parent="HLlI4vMvWzFvsQrsgA7w-1" vertex="1">
          <mxGeometry y="130" width="180" height="26" as="geometry" />
        </mxCell>
        <mxCell id="HLlI4vMvWzFvsQrsgA7w-9" style="edgeStyle=orthogonalEdgeStyle;rounded=0;orthogonalLoop=1;jettySize=auto;html=1;exitX=1;exitY=0.5;exitDx=0;exitDy=0;" parent="1" source="E_ENdN6e-ANim_YOuVph-7" target="HLlI4vMvWzFvsQrsgA7w-1" edge="1">
          <mxGeometry relative="1" as="geometry" />
        </mxCell>
        <mxCell id="Qqy8yEr9RrWjvFFa5A5u-1" value="&lt;b&gt;Projects&lt;/b&gt;" style="swimlane;fontStyle=0;childLayout=stackLayout;horizontal=1;startSize=26;fillColor=#6a00ff;horizontalStack=0;resizeParent=1;resizeParentMax=0;resizeLast=0;collapsible=1;marginBottom=0;whiteSpace=wrap;html=1;fontColor=#ffffff;strokeColor=#3700CC;" parent="1" vertex="1">
          <mxGeometry x="80" y="640" width="150" height="156" as="geometry" />
        </mxCell>
        <mxCell id="Qqy8yEr9RrWjvFFa5A5u-2" value="CreatedBy | UserId" style="text;strokeColor=none;fillColor=none;align=left;verticalAlign=top;spacingLeft=4;spacingRight=4;overflow=hidden;rotatable=0;points=[[0,0.5],[1,0.5]];portConstraint=eastwest;whiteSpace=wrap;html=1;" parent="Qqy8yEr9RrWjvFFa5A5u-1" vertex="1">
          <mxGeometry y="26" width="150" height="26" as="geometry" />
        </mxCell>
        <mxCell id="Qqy8yEr9RrWjvFFa5A5u-3" value="CreatedAt | Date" style="text;strokeColor=none;fillColor=none;align=left;verticalAlign=top;spacingLeft=4;spacingRight=4;overflow=hidden;rotatable=0;points=[[0,0.5],[1,0.5]];portConstraint=eastwest;whiteSpace=wrap;html=1;" parent="Qqy8yEr9RrWjvFFa5A5u-1" vertex="1">
          <mxGeometry y="52" width="150" height="26" as="geometry" />
        </mxCell>
        <mxCell id="Qqy8yEr9RrWjvFFa5A5u-4" value="_id | ObjectId" style="text;strokeColor=none;fillColor=none;align=left;verticalAlign=top;spacingLeft=4;spacingRight=4;overflow=hidden;rotatable=0;points=[[0,0.5],[1,0.5]];portConstraint=eastwest;whiteSpace=wrap;html=1;" parent="Qqy8yEr9RrWjvFFa5A5u-1" vertex="1">
          <mxGeometry y="78" width="150" height="26" as="geometry" />
        </mxCell>
        <mxCell id="Qqy8yEr9RrWjvFFa5A5u-5" value="Description | String" style="text;strokeColor=none;fillColor=none;align=left;verticalAlign=top;spacingLeft=4;spacingRight=4;overflow=hidden;rotatable=0;points=[[0,0.5],[1,0.5]];portConstraint=eastwest;whiteSpace=wrap;html=1;" parent="Qqy8yEr9RrWjvFFa5A5u-1" vertex="1">
          <mxGeometry y="104" width="150" height="26" as="geometry" />
        </mxCell>
        <mxCell id="Qqy8yEr9RrWjvFFa5A5u-10" value="Tasks | Array[Task]" style="text;strokeColor=none;fillColor=none;align=left;verticalAlign=top;spacingLeft=4;spacingRight=4;overflow=hidden;rotatable=0;points=[[0,0.5],[1,0.5]];portConstraint=eastwest;whiteSpace=wrap;html=1;" parent="Qqy8yEr9RrWjvFFa5A5u-1" vertex="1">
          <mxGeometry y="130" width="150" height="26" as="geometry" />
        </mxCell>
        <mxCell id="mt3Zby5HHH5PL2NB5u35-1" value="&lt;b&gt;Tasks&lt;/b&gt;" style="swimlane;fontStyle=0;childLayout=stackLayout;horizontal=1;startSize=26;fillColor=#9C19FF;horizontalStack=0;resizeParent=1;resizeParentMax=0;resizeLast=0;collapsible=1;marginBottom=0;whiteSpace=wrap;html=1;fontColor=#ffffff;strokeColor=#6E26FF;" parent="1" vertex="1">
          <mxGeometry x="320" y="640" width="370" height="182" as="geometry" />
        </mxCell>
        <mxCell id="mt3Zby5HHH5PL2NB5u35-2" value="CreatedBy | UserId" style="text;strokeColor=none;fillColor=none;align=left;verticalAlign=top;spacingLeft=4;spacingRight=4;overflow=hidden;rotatable=0;points=[[0,0.5],[1,0.5]];portConstraint=eastwest;whiteSpace=wrap;html=1;" parent="mt3Zby5HHH5PL2NB5u35-1" vertex="1">
          <mxGeometry y="26" width="370" height="26" as="geometry" />
        </mxCell>
        <mxCell id="mt3Zby5HHH5PL2NB5u35-3" value="CreatedAt | Date" style="text;strokeColor=none;fillColor=none;align=left;verticalAlign=top;spacingLeft=4;spacingRight=4;overflow=hidden;rotatable=0;points=[[0,0.5],[1,0.5]];portConstraint=eastwest;whiteSpace=wrap;html=1;" parent="mt3Zby5HHH5PL2NB5u35-1" vertex="1">
          <mxGeometry y="52" width="370" height="26" as="geometry" />
        </mxCell>
        <mxCell id="mt3Zby5HHH5PL2NB5u35-4" value="_id | ObjectId" style="text;strokeColor=none;fillColor=none;align=left;verticalAlign=top;spacingLeft=4;spacingRight=4;overflow=hidden;rotatable=0;points=[[0,0.5],[1,0.5]];portConstraint=eastwest;whiteSpace=wrap;html=1;" parent="mt3Zby5HHH5PL2NB5u35-1" vertex="1">
          <mxGeometry y="78" width="370" height="26" as="geometry" />
        </mxCell>
        <mxCell id="mt3Zby5HHH5PL2NB5u35-5" value="Description | String" style="text;strokeColor=none;fillColor=none;align=left;verticalAlign=top;spacingLeft=4;spacingRight=4;overflow=hidden;rotatable=0;points=[[0,0.5],[1,0.5]];portConstraint=eastwest;whiteSpace=wrap;html=1;" parent="mt3Zby5HHH5PL2NB5u35-1" vertex="1">
          <mxGeometry y="104" width="370" height="26" as="geometry" />
        </mxCell>
        <mxCell id="mt3Zby5HHH5PL2NB5u35-10" value="Status |&amp;nbsp;&lt;span style=&quot;background-color: initial;&quot;&gt;&quot;Completed&quot; / &quot;In-Progress&quot; / &quot;Not Started&quot;&lt;/span&gt;" style="text;strokeColor=none;fillColor=none;align=left;verticalAlign=top;spacingLeft=4;spacingRight=4;overflow=hidden;rotatable=0;points=[[0,0.5],[1,0.5]];portConstraint=eastwest;whiteSpace=wrap;html=1;" parent="mt3Zby5HHH5PL2NB5u35-1" vertex="1">
          <mxGeometry y="130" width="370" height="26" as="geometry" />
        </mxCell>
        <mxCell id="mt3Zby5HHH5PL2NB5u35-11" value="CompletedAt | Date" style="text;strokeColor=none;fillColor=none;align=left;verticalAlign=top;spacingLeft=4;spacingRight=4;overflow=hidden;rotatable=0;points=[[0,0.5],[1,0.5]];portConstraint=eastwest;whiteSpace=wrap;html=1;" parent="mt3Zby5HHH5PL2NB5u35-1" vertex="1">
          <mxGeometry y="156" width="370" height="26" as="geometry" />
        </mxCell>
      </root>
    </mxGraphModel>
  </diagram>
</mxfile>
